<svg width="50" height="50" xmlns="http://www.w3.org/2000/svg">

 <g>
  <title>background</title>
  <rect fill="none" id="canvas_background" height="402" width="582" y="-1" x="-1"/>
 </g>
 <g>
  <title>Layer 1</title>
  <polyline id="svg_2" stroke-width="2" stroke-miterlimit="10" stroke-linejoin="round" stroke="#ff1100" points="30,14 30,10   35,10 35,6 21,6 21,10 26,10 26,14 " fill="none"/>
  <polyline id="svg_3" stroke-width="2" stroke-miterlimit="10" stroke-linejoin="round" stroke="#ff1100" points="9,27 5,27 5,21   1,21 1,37 5,37 5,31 9,31 " fill="none"/>
  <path id="svg_4" stroke-width="2.0077" stroke-miterlimit="10" stroke-linejoin="round" stroke-linecap="round" stroke="#ff1100" fill="none" d="m45,20l0,5l-3,0l0,-8.157c0,-1.017 -0.811,-1.843 -1.809,-1.843l-20.201,0c-0.479,0 -0.941,0.195 -1.28,0.542l-4.71,5.458l-3,0c-1,0 -2,1 -2,2l0,12c0,1.018 1.002,2 2,2l3,0l4.712,5.461c0.339,0.345 0.799,0.539 1.278,0.539l12.855,0c0.479,0 0.939,-0.194 1.278,-0.539l7.346,-7.482c0.341,-0.346 0.53,-0.814 0.53,-1.303l0,-2.676l3,0l0,5l4,0l0,-16l-3.999,0z"/>
 </g>
</svg>